<?xml version="1.0" encoding="UTF-8" standalone="no"?>
<!-- Created with Inkscape (http://www.inkscape.org/) -->

<svg
   xmlns:dc="http://purl.org/dc/elements/1.1/"
   xmlns:cc="http://creativecommons.org/ns#"
   xmlns:rdf="http://www.w3.org/1999/02/22-rdf-syntax-ns#"
   xmlns:svg="http://www.w3.org/2000/svg"
   xmlns="http://www.w3.org/2000/svg"
   xmlns:sodipodi="http://sodipodi.sourceforge.net/DTD/sodipodi-0.dtd"
   xmlns:inkscape="http://www.inkscape.org/namespaces/inkscape"
   width="143"
   height="59"
   id="svg2997"
   version="1.1"
   inkscape:version="0.48.4 r9939"
   sodipodi:docname="moove-it_logo.svg">
  <defs
     id="defs2999" />
  <sodipodi:namedview
     id="base"
     pagecolor="#ffffff"
     bordercolor="#666666"
     borderopacity="1.0"
     inkscape:pageopacity="0.0"
     inkscape:pageshadow="2"
     inkscape:zoom="7.9195959"
     inkscape:cx="33.845017"
     inkscape:cy="31.445115"
     inkscape:document-units="px"
     inkscape:current-layer="layer1"
     showgrid="false"
     inkscape:window-width="1364"
     inkscape:window-height="718"
     inkscape:window-x="0"
     inkscape:window-y="0"
     inkscape:window-maximized="1" />
  <metadata
     id="metadata3002">
    <rdf:RDF>
      <cc:Work
         rdf:about="">
        <dc:format>image/svg+xml</dc:format>
        <dc:type
           rdf:resource="http://purl.org/dc/dcmitype/StillImage" />
        <dc:title />
      </cc:Work>
    </rdf:RDF>
  </metadata>
  <g
     inkscape:label="Layer 1"
     inkscape:groupmode="layer"
     id="layer1"
     transform="translate(0,-993.36218)">
    <g
       transform="matrix(0.21178795,0,0,-0.21178795,-17.651256,1083.013)"
       inkscape:label="moove-it_simple_vector"
       id="g3008">
      <g
         id="g3010">
        <path
           id="path3012"
           style="fill:#ff8d40;fill-opacity:1;fill-rule:evenodd;stroke:none"
           d="m 675.328,366.705 c -8.242,0 -14.887,-6.508 -14.887,-14.765 0,-8.235 6.645,-14.891 14.887,-14.891 8.082,0 14.707,6.656 14.707,14.891 0,8.257 -6.625,14.765 -14.707,14.765 z m 42.844,-19.691 c -1.688,-0.141 -2.004,-0.793 -2.004,-2.613 l 0,-18.414 -10.758,0 c -1.851,0 -2.793,-0.438 -2.793,-2.672 l 0,-11.973 c 0,-2.031 0.27,-3.039 3.035,-3.039 l 10.516,0 0,-63.387 c 0,-6.523 5.512,-16.285 17.504,-16.285 16.613,0 24.488,6.914 24.488,11.91 0,0.797 -0.144,1.637 -0.547,2.25 l -5.043,7.051 c -0.402,0.805 -1.234,1.578 -2.25,1.578 -7.41,-5.242 -8.508,-0.68 -8.508,4.195 l 0,52.688 10.758,0 c 2.41,0 2.297,0.652 2.797,2.676 l 3.039,12.336 c 0.512,2.023 -0.351,2.672 -2.797,2.672 l -13.797,0 0,18.414 c 0,2.082 -0.429,2.613 -2.855,2.613 l -19.992,0 c -0.153,0 -0.289,-0.004 -0.426,0 -0.141,0 -0.246,0.012 -0.367,0 z M 100.238,335.287 c -0.82,0 -1.832,-0.273 -3.039,-0.668 L 85.59,330.85 c -1.399,-0.449 -2.246,-1.922 -2.246,-3.707 l 0.117,-31.239 0,-61.015 c 0,-2.235 0.387,-2.856 2.797,-2.856 l 20.054,0 c 2.415,0 2.797,0.621 2.797,2.856 l 0,70.863 c 2.633,2.434 9.325,8.266 17.805,8.266 7.676,0 8.449,-9.266 8.449,-16.957 l 0,-62.172 c 0,-2.235 0.438,-2.856 2.856,-2.856 l 19.992,0 c 2.414,0 2.797,0.621 2.797,2.856 l 0,70.863 c 2.644,2.434 9.262,8.266 17.746,8.266 7.672,0 8.508,-9.266 8.508,-16.957 l 0,-62.172 c 0,-2.235 0.394,-2.856 2.797,-2.856 l 20.054,0 c 2.414,0 2.856,0.621 2.856,2.856 l 0,68.43 c 0,17.562 -4.465,31.968 -23.457,31.968 -16.539,0 -25.262,-8.734 -31.301,-13.98 -2.438,8.48 -11.934,13.98 -20.602,13.98 -15.968,0 -24.886,-8.734 -30.929,-13.98 -2.239,9.5 -3.832,13.98 -6.446,13.98 l 0.004,0 z m 170.043,0 c -27.277,0 -43.82,-20.855 -43.82,-53.359 0,-32.524 16.543,-53.359 43.82,-53.359 27.254,0 43.817,20.835 43.817,53.359 0,32.504 -16.758,53.359 -43.817,53.359 z m 100.758,0 c -27.258,0 -43.816,-20.855 -43.816,-53.359 0,-32.524 16.558,-53.359 43.816,-53.359 27.285,0 43.816,20.835 43.816,53.359 0,32.504 -16.718,53.359 -43.816,53.359 z m 180.859,0 c -27.046,0 -42.843,-22.269 -42.843,-54.39 0,-37.141 18.629,-52.328 45.277,-52.328 15.965,0 36.156,6.718 36.156,11.972 0,0.797 -0.203,1.574 -0.605,2.188 l -5.043,12.156 c -0.402,0.805 -1.235,1.578 -2.25,1.578 -2.828,0 -11.117,-6.621 -25.645,-6.621 -18.98,0 -22.246,13.906 -22.246,25.219 l 51.535,0 c 3.821,0 4.621,1.187 4.621,5.043 0,24.41 -4.628,55.183 -38.957,55.183 z m -110.605,-1.64 c -0.398,0 -2.617,-0.246 -3.219,-0.246 l -16.773,-1.762 c -3.02,-0.418 -4.438,-0.637 -4.438,-2.246 0.239,-1.442 0.821,-3.074 1.032,-3.465 l 32.148,-93.043 c 0.789,-2.262 1.012,-2.676 3.832,-2.676 l 16.527,0 c 2.832,0 3.012,0.414 3.828,2.676 l 32.942,93.043 c 0.199,0.391 0.828,2.023 1.031,3.465 0,1.609 -1.406,1.828 -4.437,2.246 l -13.793,1.762 c -0.606,0 -2.817,0.246 -3.223,0.246 -1.621,0 -2.191,-1.868 -2.793,-4.075 l -13.734,-45.457 c -8.746,-28.921 -5.301,-31.121 -13.735,0 l -12.34,45.457 c -0.601,2.024 -1.222,4.075 -2.855,4.075 z m 223.887,-7.719 c -2.41,0 -2.797,-0.594 -2.797,-2.676 l 0,-88.543 c 0,-2.082 0.387,-2.676 2.797,-2.676 l 19.992,0 c 2.426,0 2.859,0.594 2.859,2.676 l 0,88.543 c 0,2.082 -0.433,2.676 -2.859,2.676 l -19.992,0 z m -113.282,-9.481 c 13.95,0 14.528,-14.32 14.528,-22.609 l -31.727,0 c 0.637,5.66 1.453,22.609 17.199,22.609 z m -281.617,-1.398 c 13.91,0 16.528,-14.32 16.528,-33.121 0,-18.973 -2.414,-33.121 -16.528,-33.121 -14.152,0 -16.531,14.347 -16.531,33.121 0,18.801 2.57,33.121 16.531,33.121 z m 100.758,0 c 13.945,0 16.531,-14.32 16.531,-33.121 0,-18.973 -2.386,-33.121 -16.531,-33.121 -14.133,0 -16.527,14.347 -16.527,33.121 0,18.801 2.605,33.121 16.527,33.121 z m 235.859,-25.16 c -0.769,-0.16 -1.035,-0.793 -1.035,-2.125 l 0,-14.77 c 0,-1.793 0.41,-2.125 1.946,-2.125 l 36.406,0 c 1.535,0 2.004,0.332 2.004,2.125 l 0,14.77 c 0,1.332 -0.324,1.961 -1.094,2.125 l -38.227,0 z"
           inkscape:connector-curvature="0" />
      </g>
    </g>
  </g>
</svg>
